<?xml version="1.0" encoding="UTF-8" standalone="no"?>
<!-- Created with Inkscape (http://www.inkscape.org/) -->

<svg
   version="1.1"
   id="svg2"
   width="864"
   height="336"
   viewBox="0 0 864 336"
   sodipodi:docname="koch.svg"
   inkscape:version="1.2.2 (b0a8486541, 2022-12-01)"
   xmlns:inkscape="http://www.inkscape.org/namespaces/inkscape"
   xmlns:sodipodi="http://sodipodi.sourceforge.net/DTD/sodipodi-0.dtd"
   xmlns="http://www.w3.org/2000/svg"
   xmlns:svg="http://www.w3.org/2000/svg">
  <defs
     id="defs6">
    <clipPath
       clipPathUnits="userSpaceOnUse"
       id="clipPath20">
      <path
         d="m 4.75,130.75 h 206.5 v 116.5 H 4.75 Z"
         id="path18" />
    </clipPath>
    <clipPath
       clipPathUnits="userSpaceOnUse"
       id="clipPath34">
      <path
         d="m 220.75,130.75 h 206.5 v 116.5 h -206.5 z"
         id="path32" />
    </clipPath>
    <clipPath
       clipPathUnits="userSpaceOnUse"
       id="clipPath42">
      <path
         d="m 220.75,130.75 h 206.5 v 116.5 h -206.5 z"
         id="path40" />
    </clipPath>
    <clipPath
       clipPathUnits="userSpaceOnUse"
       id="clipPath56">
      <path
         d="m 436.75,130.75 h 206.5 v 116.5 h -206.5 z"
         id="path54" />
    </clipPath>
    <clipPath
       clipPathUnits="userSpaceOnUse"
       id="clipPath64">
      <path
         d="m 436.75,130.75 h 206.5 v 116.5 h -206.5 z"
         id="path62" />
    </clipPath>
    <clipPath
       clipPathUnits="userSpaceOnUse"
       id="clipPath78">
      <path
         d="m 4.75,4.75 h 206.5 v 116.5 H 4.75 Z"
         id="path76" />
    </clipPath>
    <clipPath
       clipPathUnits="userSpaceOnUse"
       id="clipPath86">
      <path
         d="m 4.75,4.75 h 206.5 v 116.5 H 4.75 Z"
         id="path84" />
    </clipPath>
    <clipPath
       clipPathUnits="userSpaceOnUse"
       id="clipPath100">
      <path
         d="m 220.75,4.75 h 206.5 v 116.5 h -206.5 z"
         id="path98" />
    </clipPath>
    <clipPath
       clipPathUnits="userSpaceOnUse"
       id="clipPath108">
      <path
         d="m 220.75,4.75 h 206.5 v 116.5 h -206.5 z"
         id="path106" />
    </clipPath>
    <clipPath
       clipPathUnits="userSpaceOnUse"
       id="clipPath122">
      <path
         d="m 436.75,4.75 h 206.5 v 116.5 h -206.5 z"
         id="path120" />
    </clipPath>
    <clipPath
       clipPathUnits="userSpaceOnUse"
       id="clipPath130">
      <path
         d="m 436.75,4.75 h 206.5 v 116.5 h -206.5 z"
         id="path128" />
    </clipPath>
  </defs>
  <sodipodi:namedview
     id="namedview4"
     pagecolor="#ffffff"
     bordercolor="#000000"
     borderopacity="0.25"
     inkscape:showpageshadow="2"
     inkscape:pageopacity="0.0"
     inkscape:pagecheckerboard="0"
     inkscape:deskcolor="#d1d1d1"
     showgrid="false"
     inkscape:zoom="1.6886574"
     inkscape:cx="432.29609"
     inkscape:cy="168.47704"
     inkscape:window-width="1848"
     inkscape:window-height="1016"
     inkscape:window-x="72"
     inkscape:window-y="27"
     inkscape:window-maximized="1"
     inkscape:current-layer="g10">
    <inkscape:page
       x="0"
       y="0"
       id="page8"
       width="864"
       height="336" />
  </sodipodi:namedview>
  <g
     id="g10"
     inkscape:groupmode="layer"
     inkscape:label="Page 1"
     transform="matrix(1.3333333,0,0,-1.3333333,0,336)">
    <g
       id="g12" />
    <g
       id="g14">
      <g
         id="g16"
         clip-path="url(#clipPath20)">
        <path
           d="m 61.29,162.03 46.71,80.9 46.71,-80.9 H 61.29"
           style="fill:none;stroke:#000000;stroke-width:0.75;stroke-linecap:round;stroke-linejoin:round;stroke-miterlimit:10;stroke-dasharray:none;stroke-opacity:1"
           id="path22" />
        <text
           xml:space="preserve"
           transform="matrix(1,0,0,-1,33.26,222.5)"
           style="font-variant:normal;font-weight:normal;font-size:16px;font-family:Helvetica;-inkscape-font-specification:Helvetica;writing-mode:lr-tb;fill:#000000;fill-opacity:1;fill-rule:nonzero;stroke:none"
           id="text26"><tspan
             x="0 11.552 16 25.344 29.792"
             y="0"
             sodipodi:role="line"
             id="tspan24">N = 0</tspan></text>
      </g>
    </g>
    <g
       id="g28">
      <g
         id="g30"
         clip-path="url(#clipPath34)" />
    </g>
    <g
       id="g36">
      <g
         id="g38"
         clip-path="url(#clipPath42)">
        <path
           d="m 277.29,162.03 15.57,26.97 -15.57,26.97 h 31.14 l 15.57,26.96 15.57,-26.96 h 31.14 L 355.14,189 370.71,162.03 H 339.57 L 324,135.07 308.43,162.03 h -31.14"
           style="fill:none;stroke:#000000;stroke-width:0.75;stroke-linecap:round;stroke-linejoin:round;stroke-miterlimit:10;stroke-dasharray:none;stroke-opacity:1"
           id="path44" />
        <text
           xml:space="preserve"
           transform="matrix(1,0,0,-1,249.26,222.5)"
           style="font-variant:normal;font-weight:normal;font-size:16px;font-family:Helvetica;-inkscape-font-specification:Helvetica;writing-mode:lr-tb;fill:#000000;fill-opacity:1;fill-rule:nonzero;stroke:none"
           id="text48"><tspan
             x="0 11.552 16 25.344 29.792"
             y="0"
             sodipodi:role="line"
             id="tspan46">N = 1</tspan></text>
      </g>
    </g>
    <g
       id="g50">
      <g
         id="g52"
         clip-path="url(#clipPath56)" />
    </g>
    <g
       id="g58">
      <g
         id="g60"
         clip-path="url(#clipPath64)">
        <path
           d="m 493.29,162.03 5.19,8.99 -5.19,8.99 h 10.38 l 5.19,8.99 -5.19,8.99 h -10.38 l 5.19,8.99 -5.19,8.99 h 10.38 l 5.19,8.99 5.19,-8.99 h 10.38 l 5.19,8.99 -5.19,8.98 h 10.38 l 5.19,8.99 5.19,-8.99 h 10.38 l -5.19,-8.98 5.19,-8.99 h 10.38 l 5.19,8.99 5.19,-8.99 h 10.38 l -5.19,-8.99 5.19,-8.99 h -10.38 l -5.19,-8.99 5.19,-8.99 h 10.38 l -5.19,-8.99 5.19,-8.99 h -10.38 l -5.19,-8.99 -5.19,8.99 h -10.38 l -5.19,-8.99 5.19,-8.98 h -10.38 l -5.19,-8.99 -5.19,8.99 h -10.38 l 5.19,8.98 -5.19,8.99 h -10.38 l -5.19,-8.99 -5.19,8.99 h -10.38"
           style="fill:none;stroke:#000000;stroke-width:0.75;stroke-linecap:round;stroke-linejoin:round;stroke-miterlimit:10;stroke-dasharray:none;stroke-opacity:1"
           id="path66" />
        <text
           xml:space="preserve"
           transform="matrix(1,0,0,-1,465.26,222.5)"
           style="font-variant:normal;font-weight:normal;font-size:16px;font-family:Helvetica;-inkscape-font-specification:Helvetica;writing-mode:lr-tb;fill:#000000;fill-opacity:1;fill-rule:nonzero;stroke:none"
           id="text70"><tspan
             x="0 11.552 16 25.344 29.792"
             y="0"
             sodipodi:role="line"
             id="tspan68">N = 2</tspan></text>
      </g>
    </g>
    <g
       id="g72">
      <g
         id="g74"
         clip-path="url(#clipPath78)" />
    </g>
    <g
       id="g80">
      <g
         id="g82"
         clip-path="url(#clipPath86)">
        <path
           d="m 61.29,36.03 1.73,3 -1.73,3 h 3.46 l 1.73,2.99 -1.73,3 h -3.46 l 1.73,2.99 -1.73,3 h 3.46 l 1.73,3 1.73,-3 h 3.46 l 1.73,3 -1.73,2.99 h 3.46 l 1.73,3 -1.73,3 h -3.46 l 1.73,2.99 -1.73,3 h -3.46 l -1.73,-3 -1.73,3 h -3.46 l 1.73,3 -1.73,2.99 h 3.46 l 1.73,3 -1.73,2.99 h -3.46 l 1.73,3 -1.73,3 h 3.46 l 1.73,2.99 1.73,-2.99 h 3.46 l 1.73,2.99 -1.73,3 h 3.46 l 1.73,3 1.73,-3 h 3.46 l -1.73,-3 1.73,-2.99 h 3.46 l 1.73,2.99 1.73,-2.99 h 3.46 l 1.73,2.99 -1.73,3 h 3.46 l 1.73,3 -1.73,2.99 h -3.46 l 1.73,3 -1.73,2.99 h 3.46 l 1.73,3 1.73,-3 h 3.46 l 1.73,3 -1.73,3 h 3.46 l 1.73,2.99 1.73,-2.99 h 3.46 l -1.73,-3 1.73,-3 h 3.46 l 1.73,3 1.73,-3 h 3.46 l -1.73,-2.99 1.73,-3 h -3.46 l -1.73,-2.99 1.73,-3 h 3.46 l -1.73,-3 1.73,-2.99 h 3.46 l 1.73,2.99 1.73,-2.99 h 3.46 l 1.73,2.99 -1.73,3 h 3.46 l 1.73,3 1.73,-3 h 3.46 l -1.73,-3 1.73,-2.99 h 3.46 l 1.73,2.99 1.73,-2.99 h 3.46 l -1.73,-3 1.73,-3 h -3.46 l -1.73,-2.99 1.73,-3 h 3.46 l -1.73,-2.99 1.73,-3 h -3.46 l -1.73,-3 -1.73,3 h -3.46 l -1.73,-3 1.73,-2.99 h -3.46 l -1.73,-3 1.73,-3 h 3.46 l -1.73,-2.99 1.73,-3 h 3.46 l 1.73,3 1.73,-3 h 3.46 l -1.73,-3 1.73,-2.99 h -3.46 l -1.73,-3 1.73,-2.99 h 3.46 l -1.73,-3 1.73,-3 h -3.46 l -1.73,-2.99 -1.73,2.99 h -3.46 l -1.73,-2.99 1.73,-3 h -3.46 l -1.73,-3 -1.73,3 h -3.46 l 1.73,3 -1.73,2.99 h -3.46 l -1.73,-2.99 -1.73,2.99 h -3.46 l -1.73,-2.99 1.73,-3 h -3.46 l -1.73,-3 1.73,-2.99 h 3.46 l -1.73,-3 1.73,-2.99 h -3.46 l -1.73,-3 -1.73,3 h -3.46 l -1.73,-3 1.73,-3 h -3.46 L 108,9.07 l -1.73,2.99 h -3.46 l 1.73,3 -1.73,3 h -3.46 l -1.73,-3 -1.73,3 h -3.46 l 1.73,2.99 -1.73,3 h 3.46 l 1.73,2.99 -1.73,3 h -3.46 l 1.73,3 -1.73,2.99 h -3.46 l -1.73,-2.99 -1.73,2.99 h -3.46 l -1.73,-2.99 1.73,-3 h -3.46 l -1.73,-3 -1.73,3 h -3.46 l 1.73,3 -1.73,2.99 h -3.46 l -1.73,-2.99 -1.73,2.99 h -3.46"
           style="fill:none;stroke:#000000;stroke-width:0.75;stroke-linecap:round;stroke-linejoin:round;stroke-miterlimit:10;stroke-dasharray:none;stroke-opacity:1"
           id="path88" />
        <text
           xml:space="preserve"
           transform="matrix(1,0,0,-1,33.26,96.5)"
           style="font-variant:normal;font-weight:normal;font-size:16px;font-family:Helvetica;-inkscape-font-specification:Helvetica;writing-mode:lr-tb;fill:#000000;fill-opacity:1;fill-rule:nonzero;stroke:none"
           id="text92"><tspan
             x="0 11.552 16 25.344 29.792"
             y="0"
             sodipodi:role="line"
             id="tspan90">N = 3</tspan></text>
      </g>
    </g>
    <g
       id="g94">
      <g
         id="g96"
         clip-path="url(#clipPath100)" />
    </g>
    <g
       id="g102">
      <g
         id="g104"
         clip-path="url(#clipPath108)">
        <path
           d="m 277.29,36.03 0.58,1 -0.58,1 h 1.16 l 0.57,1 -0.57,1 h -1.16 l 0.58,1 -0.58,1 h 1.16 l 0.57,0.99 0.58,-0.99 h 1.15 l 0.58,0.99 -0.58,1 h 1.16 l 0.57,1 -0.57,1 h -1.16 l 0.58,1 -0.58,1 h -1.15 l -0.58,-1 -0.57,1 h -1.16 l 0.58,1 -0.58,1 h 1.16 l 0.57,0.99 -0.57,1 h -1.16 l 0.58,1 -0.58,1 h 1.16 l 0.57,1 0.58,-1 h 1.15 l 0.58,1 -0.58,1 h 1.16 l 0.57,1 0.58,-1 h 1.15 l -0.57,-1 0.57,-1 h 1.16 l 0.57,1 0.58,-1 h 1.15 l 0.58,1 -0.58,1 h 1.16 l 0.57,1 -0.57,1 h -1.16 l 0.58,0.99 -0.58,1 h 1.16 l 0.57,1 0.58,-1 h 1.15 l 0.58,1 -0.58,1 h 1.15 l 0.58,1 -0.58,1 h -1.15 l 0.58,1 -0.58,1 h -1.15 l -0.58,-1 -0.57,1 h -1.16 l 0.58,1 -0.58,0.99 h 1.16 l 0.57,1 -0.57,1 h -1.16 l 0.58,1 -0.58,1 h -1.15 l -0.58,-1 -0.57,1 h -1.16 l -0.57,-1 0.57,-1 h -1.15 l -0.58,-1 -0.57,1 h -1.16 l 0.58,1 -0.58,1 h -1.15 l -0.58,-1 -0.57,1 h -1.16 l 0.58,1 -0.58,1 h 1.16 l 0.57,1 -0.57,0.99 h -1.16 l 0.58,1 -0.58,1 h 1.16 l 0.57,1 0.58,-1 h 1.15 l 0.58,1 -0.58,1 h 1.16 l 0.57,1 -0.57,1 h -1.16 l 0.58,1 -0.58,0.99 h -1.15 l -0.58,-0.99 -0.57,0.99 h -1.16 l 0.58,1 -0.58,1 h 1.16 l 0.57,1 -0.57,1 h -1.16 l 0.58,1 -0.58,1 h 1.16 l 0.57,1 0.58,-1 h 1.15 l 0.58,1 -0.58,0.99 h 1.16 l 0.57,1 0.58,-1 h 1.15 l -0.57,-0.99 0.57,-1 h 1.16 l 0.57,1 0.58,-1 h 1.15 l 0.58,1 -0.58,0.99 h 1.16 l 0.57,1 -0.57,1 h -1.16 l 0.58,1 -0.58,1 h 1.16 l 0.57,1 0.58,-1 h 1.15 l 0.58,1 -0.58,1 h 1.15 l 0.58,1 0.58,-1 h 1.15 l -0.58,-1 0.58,-1 h 1.15 l 0.58,1 0.58,-1 h 1.15 l -0.58,-1 0.58,-1 h -1.15 l -0.58,-1 0.58,-1 h 1.15 l -0.58,-0.99 0.58,-1 h 1.15 l 0.58,1 0.58,-1 h 1.15 l 0.58,1 -0.58,0.99 h 1.15 l 0.58,1 0.58,-1 h 1.15 l -0.58,-0.99 0.58,-1 h 1.15 l 0.58,1 0.58,-1 h 1.15 l 0.58,1 -0.58,0.99 h 1.15 l 0.58,1 -0.58,1 h -1.15 l 0.58,1 -0.58,1 h 1.15 l 0.58,1 0.58,-1 h 1.15 l 0.58,1 -0.58,1 h 1.15 l 0.58,1 -0.58,0.99 h -1.15 l 0.58,1 -0.58,1 h -1.15 l -0.58,-1 -0.58,1 h -1.15 l 0.58,1 -0.58,1 h 1.15 l 0.58,1 -0.58,1 h -1.15 l 0.58,1 -0.58,0.99 h 1.15 l 0.58,1 0.58,-1 h 1.15 l 0.58,1 -0.58,1 h 1.15 l 0.58,1 0.58,-1 h 1.15 l -0.58,-1 0.58,-1 h 1.15 l 0.58,1 0.58,-1 h 1.15 l 0.58,1 -0.58,1 h 1.15 l 0.58,1 -0.58,1 h -1.15 l 0.58,1 -0.58,1 h 1.15 l 0.58,1 0.58,-1 h 1.15 l 0.58,1 -0.58,0.99 h 1.15 l 0.58,1 0.58,-1 h 1.15 l -0.58,-0.99 0.58,-1 h 1.15 l 0.58,1 0.58,-1 h 1.15 l -0.58,-1 0.58,-1 h -1.15 l -0.58,-1 0.58,-1 h 1.15 l -0.58,-1 0.58,-1 h 1.15 l 0.58,1 0.58,-1 h 1.15 l 0.58,1 -0.58,1 h 1.15 l 0.58,1 0.58,-1 h 1.15 l -0.58,-1 0.58,-1 h 1.15 l 0.58,1 0.58,-1 h 1.15 l -0.58,-0.99 0.58,-1 h -1.15 l -0.58,-1 0.58,-1 h 1.15 l -0.58,-1 0.58,-1 h -1.15 l -0.58,-1 -0.58,1 h -1.15 l -0.58,-1 0.58,-1 h -1.15 l -0.58,-0.99 0.58,-1 h 1.15 l -0.58,-1 0.58,-1 h 1.15 l 0.58,1 0.58,-1 h 1.15 l -0.58,-1 0.58,-1 h -1.15 l -0.58,-1 0.58,-1 h 1.15 l -0.58,-0.99 0.58,-1 h 1.15 l 0.58,1 0.58,-1 h 1.15 l 0.58,1 -0.58,0.99 h 1.15 l 0.58,1 0.58,-1 h 1.15 l -0.58,-0.99 0.58,-1 h 1.15 l 0.58,1 0.58,-1 h 1.15 l 0.58,1 -0.58,0.99 h 1.15 l 0.58,1 -0.58,1 h -1.15 l 0.58,1 -0.58,1 h 1.15 l 0.58,1 0.58,-1 h 1.15 l 0.58,1 -0.58,1 h 1.15 l 0.58,1 0.58,-1 h 1.15 l -0.58,-1 0.58,-1 h 1.15 l 0.58,1 0.57,-1 h 1.16 l -0.58,-1 0.58,-1 h -1.16 l -0.57,-1 0.57,-1 h 1.16 l -0.58,-0.99 0.58,-1 h 1.15 l 0.58,1 0.57,-1 h 1.16 l 0.57,1 -0.57,0.99 h 1.15 l 0.58,1 0.57,-1 h 1.16 l -0.58,-0.99 0.58,-1 h 1.15 l 0.58,1 0.57,-1 h 1.16 l -0.58,-1 0.58,-1 h -1.16 l -0.57,-1 0.57,-1 h 1.16 l -0.58,-1 0.58,-1 h -1.16 l -0.57,-0.99 -0.58,0.99 h -1.15 l -0.58,-0.99 0.58,-1 h -1.16 l -0.57,-1 0.57,-1 h 1.16 l -0.58,-1 0.58,-1 h 1.15 l 0.58,1 0.57,-1 h 1.16 l -0.58,-1 0.58,-1 h -1.16 l -0.57,-0.99 0.57,-1 h 1.16 l -0.58,-1 0.58,-1 h -1.16 l -0.57,-1 -0.58,1 h -1.15 l -0.58,-1 0.58,-1 h -1.16 l -0.57,-1 -0.58,1 h -1.15 l 0.57,1 -0.57,1 h -1.16 l -0.57,-1 -0.58,1 h -1.15 l -0.58,-1 0.58,-1 h -1.16 l -0.57,-1 0.57,-1 h 1.16 l -0.58,-0.99 0.58,-1 h -1.16 l -0.57,-1 -0.58,1 h -1.15 l -0.58,-1 0.58,-1 h -1.15 l -0.58,-1 0.58,-1 h 1.15 l -0.58,-1 0.58,-1 h 1.15 l 0.58,1 0.57,-1 h 1.16 l -0.58,-1 0.58,-0.99 h -1.16 l -0.57,-1 0.57,-1 h 1.16 l -0.58,-1 0.58,-1 h 1.15 l 0.58,1 0.57,-1 h 1.16 l 0.57,1 -0.57,1 h 1.15 l 0.58,1 0.57,-1 h 1.16 l -0.58,-1 0.58,-1 h 1.15 l 0.58,1 0.57,-1 h 1.16 l -0.58,-1 0.58,-1 h -1.16 l -0.57,-1 0.57,-0.99 h 1.16 l -0.58,-1 0.58,-1 h -1.16 l -0.57,-1 -0.58,1 h -1.15 l -0.58,-1 0.58,-1 h -1.16 l -0.57,-1 0.57,-1 h 1.16 l -0.58,-1 0.58,-0.99 h 1.15 l 0.58,0.99 0.57,-0.99 h 1.16 l -0.58,-1 0.58,-1 h -1.16 l -0.57,-1 0.57,-1 h 1.16 l -0.58,-1 0.58,-1 h -1.16 l -0.57,-1 -0.58,1 h -1.15 l -0.58,-1 0.58,-0.99 h -1.16 l -0.57,-1 -0.58,1 h -1.15 l 0.57,0.99 -0.57,1 h -1.16 l -0.57,-1 -0.58,1 h -1.15 l -0.58,-1 0.58,-0.99 h -1.16 l -0.57,-1 0.57,-1 h 1.16 l -0.58,-1 0.58,-1 h -1.16 l -0.57,-1 -0.58,1 h -1.15 l -0.58,-1 0.58,-1 h -1.15 l -0.58,-1 -0.58,1 h -1.15 l 0.58,1 -0.58,1 h -1.15 l -0.58,-1 -0.58,1 h -1.15 l 0.58,1 -0.58,1 h 1.15 l 0.58,1 -0.58,1 h -1.15 l 0.58,0.99 -0.58,1 h -1.15 l -0.58,-1 -0.58,1 h -1.15 l -0.58,-1 0.58,-0.99 h -1.15 l -0.58,-1 -0.58,1 h -1.15 l 0.58,0.99 -0.58,1 h -1.15 l -0.58,-1 -0.58,1 h -1.15 l -0.58,-1 0.58,-0.99 h -1.15 l -0.58,-1 0.58,-1 h 1.15 l -0.58,-1 0.58,-1 h -1.15 l -0.58,-1 -0.58,1 h -1.15 l -0.58,-1 0.58,-1 h -1.15 l -0.58,-1 0.58,-0.99 h 1.15 l -0.58,-1 0.58,-1 h 1.15 l 0.58,1 0.58,-1 h 1.15 l -0.58,-1 0.58,-1 h -1.15 l -0.58,-1 0.58,-1 h 1.15 l -0.58,-1 0.58,-0.99 h -1.15 l -0.58,-1 -0.58,1 h -1.15 l -0.58,-1 0.58,-1 h -1.15 l -0.58,-1 -0.58,1 h -1.15 l 0.58,1 -0.58,1 h -1.15 l -0.58,-1 -0.58,1 h -1.15 l -0.58,-1 0.58,-1 h -1.15 l -0.58,-1 0.58,-1 h 1.15 l -0.58,-1 0.58,-1 h -1.15 l -0.58,-1 -0.58,1 h -1.15 l -0.58,-1 0.58,-0.99 h -1.15 l -0.58,-1 -0.58,1 h -1.15 l 0.58,0.99 -0.58,1 h -1.15 l -0.58,-1 -0.58,1 h -1.15 l 0.58,1 -0.58,1 h 1.15 l 0.58,1 -0.58,1 h -1.15 l 0.58,1 -0.58,1 h -1.15 l -0.58,-1 -0.58,1 h -1.15 l -0.58,-1 0.58,-1 h -1.15 l -0.58,-1 -0.58,1 h -1.15 l 0.58,1 -0.58,1 h -1.15 l -0.58,-1 -0.58,1 h -1.15 l 0.58,0.99 -0.58,1 h 1.15 l 0.58,1 -0.58,1 h -1.15 l 0.58,1 -0.58,1 h 1.15 l 0.58,1 0.58,-1 h 1.15 l 0.58,1 -0.58,1 h 1.15 l 0.58,0.99 -0.58,1 h -1.15 l 0.58,1 -0.58,1 h -1.15 l -0.58,-1 -0.58,1 h -1.15 l 0.58,1 -0.58,1 h 1.15 l 0.58,1 -0.58,1 h -1.15 l 0.58,0.99 -0.58,1 h -1.15 l -0.58,-1 -0.58,1 h -1.15 l -0.58,-1 0.58,-0.99 h -1.15 l -0.58,-1 -0.58,1 h -1.15 l 0.58,0.99 -0.58,1 h -1.15 l -0.58,-1 -0.58,1 h -1.15 l -0.58,-1 0.58,-0.99 h -1.15 l -0.58,-1 0.58,-1 h 1.15 l -0.58,-1 0.58,-1 h -1.15 l -0.58,-1 -0.58,1 h -1.15 l -0.58,-1 0.58,-1 h -1.15 l -0.58,-1 -0.58,1 h -1.15 l 0.58,1 -0.58,1 h -1.15 l -0.58,-1 -0.57,1 h -1.16 l 0.58,1 -0.58,1 h 1.16 l 0.57,1 -0.57,1 h -1.16 l 0.58,0.99 -0.58,1 h -1.15 l -0.58,-1 -0.57,1 h -1.16 l -0.57,-1 0.57,-0.99 h -1.15 l -0.58,-1 -0.57,1 h -1.16 l 0.58,0.99 -0.58,1 h -1.15 l -0.58,-1 -0.57,1 h -1.16"
           style="fill:none;stroke:#000000;stroke-width:0.75;stroke-linecap:round;stroke-linejoin:round;stroke-miterlimit:10;stroke-dasharray:none;stroke-opacity:1"
           id="path110" />
        <text
           xml:space="preserve"
           transform="matrix(1,0,0,-1,249.26,96.5)"
           style="font-variant:normal;font-weight:normal;font-size:16px;font-family:Helvetica;-inkscape-font-specification:Helvetica;writing-mode:lr-tb;fill:#000000;fill-opacity:1;fill-rule:nonzero;stroke:none"
           id="text114"><tspan
             x="0 11.552 16 25.344 29.792"
             y="0"
             sodipodi:role="line"
             id="tspan112">N = 4</tspan></text>
      </g>
    </g>
    <g
       id="g116">
      <g
         id="g118"
         clip-path="url(#clipPath122)" />
    </g>
    <g
       id="g124">
      <g
         id="g126"
         clip-path="url(#clipPath130)">
        <path
           d="m 493.29,36.03 0.19,0.34 -0.19,0.33 h 0.39 l 0.19,0.33 -0.19,0.34 h -0.39 l 0.19,0.33 -0.19,0.33 h 0.39 l 0.19,0.33 0.19,-0.33 h 0.39 l 0.19,0.33 -0.19,0.34 h 0.38 l 0.19,0.33 -0.19,0.33 h -0.38 l 0.19,0.34 -0.19,0.33 h -0.39 l -0.19,-0.33 -0.19,0.33 h -0.39 l 0.19,0.33 -0.19,0.33 h 0.39 l 0.19,0.34 -0.19,0.33 h -0.39 l 0.19,0.33 -0.19,0.34 h 0.39 l 0.19,0.33 0.19,-0.33 h 0.39 l 0.19,0.33 -0.19,0.33 h 0.38 l 0.19,0.33 0.19,-0.33 h 0.39 l -0.19,-0.33 0.19,-0.33 h 0.38 l 0.2,0.33 0.19,-0.33 h 0.38 l 0.19,0.33 -0.19,0.33 h 0.39 l 0.19,0.33 -0.19,0.34 h -0.39 l 0.19,0.33 -0.19,0.33 h 0.39 l 0.19,0.34 0.19,-0.34 h 0.39 l 0.19,0.34 -0.19,0.33 h 0.38 l 0.19,0.33 -0.19,0.34 h -0.38 l 0.19,0.33 -0.19,0.33 h -0.39 l -0.19,-0.33 -0.19,0.33 h -0.39 l 0.19,0.33 -0.19,0.34 h 0.39 l 0.19,0.33 -0.19,0.33 h -0.39 l 0.19,0.34 -0.19,0.33 h -0.38 l -0.19,-0.33 -0.2,0.33 h -0.38 l -0.19,-0.33 0.19,-0.34 h -0.39 l -0.19,-0.33 -0.19,0.33 h -0.38 l 0.19,0.34 -0.19,0.33 h -0.39 l -0.19,-0.33 -0.19,0.33 h -0.39 l 0.19,0.33 -0.19,0.33 h 0.39 l 0.19,0.34 -0.19,0.33 h -0.39 l 0.19,0.33 -0.19,0.34 h 0.39 l 0.19,0.33 0.19,-0.33 h 0.39 l 0.19,0.33 -0.19,0.33 h 0.38 l 0.19,0.33 -0.19,0.34 h -0.38 l 0.19,0.33 -0.19,0.33 h -0.39 l -0.19,-0.33 -0.19,0.33 h -0.39 l 0.19,0.34 -0.19,0.33 h 0.39 l 0.19,0.33 -0.19,0.34 h -0.39 l 0.19,0.33 -0.19,0.33 h 0.39 l 0.19,0.33 0.19,-0.33 h 0.39 l 0.19,0.33 -0.19,0.34 h 0.38 l 0.19,0.33 0.19,-0.33 h 0.39 l -0.19,-0.34 0.19,-0.33 h 0.38 l 0.2,0.33 0.19,-0.33 h 0.38 l 0.19,0.33 -0.19,0.34 h 0.39 l 0.19,0.33 -0.19,0.33 h -0.39 l 0.19,0.34 -0.19,0.33 h 0.39 l 0.19,0.33 0.19,-0.33 h 0.39 l 0.19,0.33 -0.19,0.33 h 0.38 l 0.19,0.34 0.19,-0.34 h 0.39 l -0.19,-0.33 0.19,-0.33 h 0.38 l 0.2,0.33 0.19,-0.33 h 0.38 l -0.19,-0.33 0.19,-0.34 h -0.38 l -0.19,-0.33 0.19,-0.33 h 0.38 l -0.19,-0.34 0.19,-0.33 h 0.39 l 0.19,0.33 0.19,-0.33 h 0.39 l 0.19,0.33 -0.19,0.34 h 0.38 l 0.19,0.33 0.19,-0.33 h 0.39 l -0.19,-0.34 0.19,-0.33 h 0.38 l 0.2,0.33 0.19,-0.33 h 0.38 l 0.19,0.33 -0.19,0.34 h 0.39 l 0.19,0.33 -0.19,0.33 h -0.39 l 0.19,0.34 -0.19,0.33 h 0.39 l 0.19,0.33 0.19,-0.33 h 0.39 l 0.19,0.33 -0.19,0.33 h 0.38 l 0.19,0.34 -0.19,0.33 h -0.38 l 0.19,0.33 -0.19,0.34 h -0.39 l -0.19,-0.34 -0.19,0.34 h -0.39 l 0.19,0.33 -0.19,0.33 h 0.39 l 0.19,0.33 -0.19,0.34 h -0.39 l 0.19,0.33 -0.19,0.33 h 0.39 l 0.19,0.34 0.19,-0.34 h 0.39 l 0.19,0.34 -0.19,0.33 h 0.38 l 0.19,0.33 0.19,-0.33 h 0.39 l -0.19,-0.33 0.19,-0.34 h 0.38 l 0.2,0.34 0.19,-0.34 h 0.38 l 0.19,0.34 -0.19,0.33 h 0.39 l 0.19,0.33 -0.19,0.34 h -0.39 l 0.19,0.33 -0.19,0.33 h 0.39 l 0.19,0.33 0.19,-0.33 h 0.38 l 0.2,0.33 -0.2,0.34 h 0.39 l 0.19,0.33 -0.19,0.33 h -0.39 l 0.2,0.34 -0.2,0.33 h -0.38 l -0.19,-0.33 -0.19,0.33 h -0.39 l 0.19,0.33 -0.19,0.33 h 0.39 l 0.19,0.34 -0.19,0.33 h -0.39 l 0.19,0.33 -0.19,0.34 h -0.38 l -0.19,-0.34 -0.2,0.34 h -0.38 l -0.19,-0.34 0.19,-0.33 h -0.39 L 505.4,65 l -0.19,0.33 h -0.38 l 0.19,0.33 -0.19,0.34 h -0.39 l -0.19,-0.34 -0.19,0.34 h -0.39 l 0.19,0.33 -0.19,0.33 h 0.39 l 0.19,0.34 -0.19,0.33 h -0.39 l 0.19,0.33 -0.19,0.33 h 0.39 l 0.19,0.34 0.19,-0.34 h 0.39 l 0.19,0.34 -0.19,0.33 h 0.38 l 0.19,0.33 -0.19,0.34 h -0.38 l 0.19,0.33 -0.19,0.33 h -0.39 l -0.19,-0.33 -0.19,0.33 h -0.39 l 0.19,0.33 -0.19,0.34 h 0.39 l 0.19,0.33 -0.19,0.33 h -0.39 l 0.19,0.34 -0.19,0.33 h -0.38 l -0.19,-0.33 -0.2,0.33 h -0.38 l -0.19,-0.33 0.19,-0.34 h -0.39 l -0.19,-0.33 -0.19,0.33 h -0.38 l 0.19,0.34 -0.19,0.33 h -0.39 l -0.19,-0.33 -0.19,0.33 h -0.39 l -0.19,-0.33 0.19,-0.34 h -0.38 l -0.19,-0.33 0.19,-0.33 h 0.38 l -0.19,-0.34 0.19,-0.33 h -0.38 l -0.19,-0.33 -0.2,0.33 h -0.38 l -0.19,-0.33 0.19,-0.33 h -0.39 l -0.19,-0.34 -0.19,0.34 h -0.38 l 0.19,0.33 -0.19,0.33 h -0.39 l -0.19,-0.33 -0.19,0.33 h -0.39 l 0.19,0.33 -0.19,0.34 h 0.39 l 0.19,0.33 -0.19,0.33 h -0.39 l 0.19,0.34 -0.19,0.33 h -0.38 l -0.19,-0.33 -0.2,0.33 h -0.38 l -0.19,-0.33 0.19,-0.34 h -0.39 l -0.19,-0.33 -0.19,0.33 h -0.38 l 0.19,0.34 -0.19,0.33 h -0.39 l -0.19,-0.33 -0.19,0.33 h -0.39 l 0.19,0.33 -0.19,0.33 h 0.39 l 0.19,0.34 -0.19,0.33 h -0.39 l 0.19,0.33 -0.19,0.34 h 0.39 l 0.19,0.33 0.19,-0.33 h 0.39 l 0.19,0.33 -0.19,0.33 h 0.38 l 0.19,0.34 -0.19,0.33 h -0.38 l 0.19,0.33 -0.19,0.33 h -0.39 l -0.19,-0.33 -0.19,0.33 h -0.39 l 0.19,0.34 -0.19,0.33 h 0.39 l 0.19,0.33 -0.19,0.34 h -0.39 l 0.19,0.33 -0.19,0.33 h 0.39 l 0.19,0.33 0.19,-0.33 h 0.39 l 0.19,0.33 -0.19,0.34 h 0.38 l 0.19,0.33 0.19,-0.33 h 0.39 l -0.19,-0.34 0.19,-0.33 h 0.38 l 0.2,0.33 0.19,-0.33 h 0.38 l 0.19,0.33 -0.19,0.34 h 0.39 l 0.19,0.33 -0.19,0.33 h -0.39 l 0.19,0.34 -0.19,0.33 h 0.39 l 0.19,0.33 0.19,-0.33 h 0.39 l 0.19,0.33 -0.19,0.33 h 0.38 l 0.19,0.34 -0.19,0.33 h -0.38 l 0.19,0.33 -0.19,0.34 h -0.39 l -0.19,-0.34 -0.19,0.34 h -0.39 l 0.19,0.33 -0.19,0.33 h 0.39 l 0.19,0.34 -0.19,0.33 h -0.39 l 0.19,0.33 -0.19,0.33 h -0.38 l -0.19,-0.33 -0.2,0.33 h -0.38 l -0.19,-0.33 0.19,-0.33 h -0.39 l -0.19,-0.33 -0.19,0.33 h -0.38 l 0.19,0.33 -0.19,0.33 h -0.39 l -0.19,-0.33 -0.19,0.33 h -0.39 l 0.19,0.34 -0.19,0.33 h 0.39 l 0.19,0.33 -0.19,0.34 h -0.39 l 0.19,0.33 -0.19,0.33 h 0.39 l 0.19,0.33 0.19,-0.33 h 0.39 l 0.19,0.33 -0.19,0.34 h 0.38 l 0.19,0.33 -0.19,0.33 h -0.38 l 0.19,0.34 -0.19,0.33 h -0.39 l -0.19,-0.33 -0.19,0.33 h -0.39 l 0.19,0.33 -0.19,0.33 h 0.39 l 0.19,0.34 -0.19,0.33 h -0.39 l 0.19,0.33 -0.19,0.34 h 0.39 l 0.19,0.33 0.19,-0.33 h 0.39 l 0.19,0.33 -0.19,0.33 h 0.38 l 0.19,0.34 0.19,-0.34 h 0.39 l -0.19,-0.33 0.19,-0.33 h 0.38 l 0.2,0.33 0.19,-0.33 h 0.38 l 0.19,0.33 -0.19,0.33 h 0.39 l 0.19,0.34 -0.19,0.33 h -0.39 l 0.19,0.33 -0.19,0.33 h 0.39 l 0.19,0.34 0.19,-0.34 h 0.39 l 0.19,0.34 -0.19,0.33 h 0.38 l 0.19,0.33 0.19,-0.33 h 0.39 l -0.19,-0.33 0.19,-0.34 h 0.38 l 0.2,0.34 0.19,-0.34 h 0.38 l -0.19,-0.33 0.19,-0.33 h -0.38 l -0.19,-0.33 0.19,-0.34 h 0.38 l -0.19,-0.33 0.19,-0.33 h 0.39 l 0.19,0.33 0.19,-0.33 h 0.39 l 0.19,0.33 -0.19,0.33 h 0.38 l 0.19,0.34 0.19,-0.34 h 0.39 l -0.19,-0.33 0.19,-0.33 h 0.38 l 0.2,0.33 0.19,-0.33 h 0.38 l 0.19,0.33 -0.19,0.33 h 0.39 l 0.19,0.34 -0.19,0.33 h -0.39 l 0.19,0.33 -0.19,0.33 h 0.39 l 0.19,0.34 0.19,-0.34 h 0.39 l 0.19,0.34 -0.19,0.33 h 0.38 l 0.19,0.33 -0.19,0.34 h -0.38 l 0.19,0.33 -0.19,0.33 h -0.39 l -0.19,-0.33 -0.19,0.33 h -0.39 l 0.19,0.33 -0.19,0.34 h 0.39 l 0.19,0.33 -0.19,0.33 h -0.39 l 0.19,0.34 -0.19,0.33 h 0.39 l 0.19,0.33 0.19,-0.33 h 0.39 l 0.19,0.33 -0.19,0.34 h 0.38 l 0.19,0.33 0.19,-0.33 h 0.39 l -0.19,-0.34 0.19,-0.33 h 0.38 l 0.2,0.33 0.19,-0.33 h 0.38 l 0.19,0.33 -0.19,0.34 h 0.39 l 0.19,0.33 -0.19,0.33 h -0.39 l 0.19,0.33 -0.19,0.34 h 0.39 l 0.19,0.33 0.19,-0.33 h 0.38 l 0.2,0.33 -0.2,0.33 h 0.39 l 0.19,0.34 0.19,-0.34 h 0.39 l -0.19,-0.33 0.19,-0.33 h 0.38 l 0.19,0.33 0.2,-0.33 h 0.38 l -0.19,-0.34 0.19,-0.33 h -0.38 l -0.2,-0.33 0.2,-0.33 h 0.38 l -0.19,-0.34 0.19,-0.33 h 0.39 l 0.19,0.33 0.19,-0.33 h 0.38 l 0.2,0.33 -0.2,0.34 h 0.39 l 0.19,0.33 0.19,-0.33 h 0.39 l -0.19,-0.34 0.19,-0.33 h 0.38 l 0.19,0.33 0.2,-0.33 h 0.38 l -0.19,-0.33 0.19,-0.34 h -0.38 l -0.2,-0.33 0.2,-0.33 h 0.38 l -0.19,-0.34 0.19,-0.33 h -0.38 l -0.2,-0.33 -0.19,0.33 h -0.38 l -0.19,-0.33 0.19,-0.33 h -0.39 l -0.19,-0.34 0.19,-0.33 h 0.39 l -0.19,-0.33 0.19,-0.34 h 0.38 l 0.19,0.34 0.2,-0.34 h 0.38 l -0.19,-0.33 0.19,-0.33 h -0.38 l -0.2,-0.33 0.2,-0.34 h 0.38 l -0.19,-0.33 0.19,-0.33 h 0.39 l 0.19,0.33 0.19,-0.33 h 0.38 l 0.2,0.33 -0.2,0.33 h 0.39 l 0.19,0.34 0.19,-0.34 h 0.39 l -0.19,-0.33 0.19,-0.33 h 0.38 l 0.19,0.33 0.2,-0.33 h 0.38 l 0.19,0.33 -0.19,0.33 h 0.39 l 0.19,0.34 -0.19,0.33 h -0.39 l 0.19,0.33 -0.19,0.33 h 0.39 l 0.19,0.34 0.19,-0.34 h 0.38 l 0.2,0.34 -0.2,0.33 h 0.39 l 0.19,0.33 0.19,-0.33 h 0.39 l -0.19,-0.33 0.19,-0.34 h 0.38 l 0.19,0.34 0.2,-0.34 h 0.38 l -0.19,-0.33 0.19,-0.33 h -0.38 l -0.2,-0.33 0.2,-0.34 h 0.38 l -0.19,-0.33 0.19,-0.33 h 0.39 l 0.19,0.33 0.19,-0.33 h 0.38 l 0.2,0.33 -0.2,0.33 h 0.39 l 0.19,0.34 0.19,-0.34 h 0.39 l -0.19,-0.33 0.19,-0.33 h 0.38 l 0.19,0.33 0.2,-0.33 h 0.38 l 0.19,0.33 -0.19,0.33 h 0.39 l 0.19,0.34 -0.19,0.33 h -0.39 l 0.19,0.33 -0.19,0.33 h 0.39 l 0.19,0.34 0.19,-0.34 h 0.38 l 0.2,0.34 -0.2,0.33 h 0.39 l 0.19,0.33 -0.19,0.34 h -0.39 l 0.2,0.33 -0.2,0.33 h -0.38 l -0.19,-0.33 -0.19,0.33 h -0.39 l 0.19,0.33 -0.19,0.34 h 0.39 l 0.19,0.33 -0.19,0.33 h -0.39 l 0.19,0.34 -0.19,0.33 h 0.39 l 0.19,0.33 0.19,-0.33 h 0.38 l 0.2,0.33 -0.2,0.34 h 0.39 l 0.19,0.33 0.19,-0.33 h 0.39 l -0.19,-0.34 0.19,-0.33 h 0.38 l 0.19,0.33 0.2,-0.33 h 0.38 l 0.19,0.33 -0.19,0.34 h 0.39 l 0.19,0.33 -0.19,0.33 h -0.39 l 0.19,0.33 -0.19,0.34 h 0.39 l 0.19,0.33 0.19,-0.33 h 0.38 l 0.2,0.33 -0.2,0.33 h 0.39 l 0.19,0.34 -0.19,0.33 h -0.39 l 0.2,0.33 -0.2,0.33 h -0.38 l -0.19,-0.33 -0.19,0.33 h -0.39 l 0.19,0.34 -0.19,0.33 h 0.39 l 0.19,0.33 -0.19,0.34 h -0.39 l 0.19,0.33 -0.19,0.33 h -0.38 l -0.2,-0.33 -0.19,0.33 h -0.38 l -0.19,-0.33 0.19,-0.33 h -0.39 l -0.19,-0.34 -0.19,0.34 h -0.39 l 0.2,0.33 -0.2,0.33 h -0.38 l -0.19,-0.33 -0.19,0.33 h -0.39 l 0.19,0.33 -0.19,0.34 h 0.39 l 0.19,0.33 -0.19,0.33 h -0.39 l 0.19,0.34 -0.19,0.33 h 0.39 l 0.19,0.33 0.19,-0.33 h 0.38 l 0.2,0.33 -0.2,0.34 h 0.39 l 0.19,0.33 -0.19,0.33 h -0.39 l 0.2,0.33 -0.2,0.34 h -0.38 l -0.19,-0.34 -0.19,0.34 h -0.39 l 0.19,0.33 -0.19,0.33 h 0.39 l 0.19,0.34 -0.19,0.33 h -0.39 l 0.19,0.33 -0.19,0.33 h 0.39 l 0.19,0.34 0.19,-0.34 h 0.38 l 0.2,0.34 -0.2,0.33 h 0.39 l 0.19,0.33 0.19,-0.33 h 0.39 l -0.19,-0.33 0.19,-0.34 h 0.38 l 0.19,0.34 0.2,-0.34 h 0.38 l 0.19,0.34 -0.19,0.33 h 0.39 l 0.19,0.33 -0.19,0.34 h -0.39 l 0.19,0.33 -0.19,0.33 h 0.39 l 0.19,0.33 0.19,-0.33 h 0.38 l 0.2,0.33 -0.2,0.34 h 0.39 l 0.19,0.33 0.19,-0.33 h 0.39 l -0.2,-0.34 0.2,-0.33 h 0.38 l 0.19,0.33 0.2,-0.33 h 0.38 l -0.19,-0.33 0.19,-0.33 h -0.38 l -0.2,-0.34 0.2,-0.33 h 0.38 l -0.19,-0.33 0.19,-0.34 h 0.38 l 0.2,0.34 0.19,-0.34 h 0.38 l 0.2,0.34 -0.2,0.33 h 0.39 l 0.19,0.33 0.19,-0.33 h 0.39 l -0.2,-0.33 0.2,-0.34 h 0.38 l 0.19,0.34 0.2,-0.34 h 0.38 l 0.19,0.34 -0.19,0.33 h 0.38 l 0.2,0.33 -0.2,0.34 h -0.38 l 0.19,0.33 -0.19,0.33 h 0.38 l 0.2,0.33 0.19,-0.33 h 0.38 l 0.2,0.33 -0.2,0.34 h 0.39 l 0.19,0.33 -0.19,0.33 h -0.39 l 0.2,0.34 -0.2,0.33 h -0.38 l -0.19,-0.33 -0.2,0.33 h -0.38 l 0.19,0.33 -0.19,0.34 h 0.38 l 0.2,0.33 -0.2,0.33 h -0.38 l 0.19,0.33 -0.19,0.34 h 0.38 l 0.2,0.33 0.19,-0.33 h 0.38 l 0.2,0.33 -0.2,0.33 h 0.39 l 0.19,0.34 0.19,-0.34 h 0.39 l -0.2,-0.33 0.2,-0.33 h 0.38 l 0.19,0.33 0.2,-0.33 h 0.38 l 0.19,0.33 -0.19,0.33 h 0.38 l 0.2,0.34 -0.2,0.33 h -0.38 l 0.19,0.33 -0.19,0.33 h 0.38 l 0.2,0.34 0.19,-0.34 h 0.38 l 0.2,0.34 -0.2,0.33 h 0.39 l 0.19,0.33 0.19,-0.33 h 0.39 l -0.2,-0.33 0.2,-0.34 h 0.38 l 0.19,0.34 0.2,-0.34 h 0.38 l -0.19,-0.33 0.19,-0.33 h -0.38 l -0.2,-0.33 0.2,-0.34 h 0.38 l -0.19,-0.33 0.19,-0.33 h 0.38 l 0.2,0.33 0.19,-0.33 h 0.38 l 0.2,0.33 -0.2,0.33 h 0.39 l 0.19,0.34 0.19,-0.34 h 0.39 l -0.2,-0.33 0.2,-0.33 h 0.38 l 0.19,0.33 0.2,-0.33 h 0.38 l -0.19,-0.34 0.19,-0.33 h -0.38 l -0.2,-0.33 0.2,-0.33 h 0.38 l -0.19,-0.34 0.19,-0.33 h -0.38 l -0.2,-0.33 -0.19,0.33 h -0.38 l -0.2,-0.33 0.2,-0.34 h -0.39 l -0.19,-0.33 0.19,-0.33 h 0.39 l -0.2,-0.34 0.2,-0.33 h 0.38 l 0.19,0.33 0.2,-0.33 h 0.38 l -0.19,-0.33 0.19,-0.33 h -0.38 l -0.2,-0.34 0.2,-0.33 h 0.38 l -0.19,-0.33 0.19,-0.34 h 0.38 l 0.2,0.34 0.19,-0.34 h 0.38 l 0.2,0.34 -0.2,0.33 h 0.39 l 0.19,0.33 0.19,-0.33 h 0.39 l -0.2,-0.33 0.2,-0.34 h 0.38 l 0.19,0.34 0.2,-0.34 h 0.38 l 0.19,0.34 -0.19,0.33 h 0.38 l 0.2,0.33 -0.2,0.34 h -0.38 l 0.19,0.33 -0.19,0.33 h 0.38 l 0.2,0.33 0.19,-0.33 h 0.38 l 0.2,0.33 -0.2,0.34 h 0.39 l 0.19,0.33 0.19,-0.33 h 0.39 l -0.2,-0.34 0.2,-0.33 h 0.38 l 0.19,0.33 0.19,-0.33 h 0.39 l -0.19,-0.33 0.19,-0.33 h -0.39 l -0.19,-0.34 0.19,-0.33 h 0.39 l -0.19,-0.33 0.19,-0.34 h 0.38 l 0.2,0.34 0.19,-0.34 h 0.38 l 0.19,0.34 -0.19,0.33 h 0.39 l 0.19,0.33 0.19,-0.33 h 0.39 l -0.2,-0.33 0.2,-0.34 h 0.38 l 0.19,0.34 0.19,-0.34 h 0.39 l -0.19,-0.33 0.19,-0.33 h -0.39 l -0.19,-0.33 0.19,-0.34 h 0.39 l -0.19,-0.33 0.19,-0.33 h -0.39 l -0.19,-0.34 -0.19,0.34 h -0.38 l -0.2,-0.34 0.2,-0.33 h -0.39 l -0.19,-0.33 0.19,-0.33 h 0.39 l -0.2,-0.34 0.2,-0.33 h 0.38 l 0.19,0.33 0.19,-0.33 h 0.39 l -0.19,-0.33 0.19,-0.34 h -0.39 l -0.19,-0.33 0.19,-0.33 h 0.39 l -0.19,-0.34 0.19,-0.33 h -0.39 l -0.19,-0.33 -0.19,0.33 h -0.38 l -0.2,-0.33 0.2,-0.33 h -0.39 l -0.19,-0.34 -0.19,0.34 h -0.39 l 0.19,0.33 -0.19,0.33 h -0.38 l -0.19,-0.33 -0.2,0.33 h -0.38 l -0.19,-0.33 0.19,-0.33 h -0.39 l -0.19,-0.34 0.19,-0.33 h 0.39 l -0.19,-0.33 0.19,-0.34 h -0.39 l -0.19,-0.33 -0.19,0.33 h -0.38 l -0.2,-0.33 0.2,-0.33 h -0.39 l -0.19,-0.33 0.19,-0.34 h 0.39 l -0.2,-0.33 0.2,-0.33 h 0.38 l 0.19,0.33 0.19,-0.33 h 0.39 l -0.19,-0.34 0.19,-0.33 h -0.39 l -0.19,-0.33 0.19,-0.33 h 0.39 l -0.19,-0.34 0.19,-0.33 h 0.38 l 0.2,0.33 0.19,-0.33 h 0.38 l 0.19,0.33 -0.19,0.34 h 0.39 l 0.19,0.33 0.19,-0.33 h 0.39 l -0.2,-0.34 0.2,-0.33 h 0.38 l 0.19,0.33 0.19,-0.33 h 0.39 l -0.19,-0.33 0.19,-0.34 h -0.39 l -0.19,-0.33 0.19,-0.33 h 0.39 l -0.19,-0.34 0.19,-0.33 h -0.39 l -0.19,-0.33 -0.19,0.33 h -0.38 l -0.2,-0.33 0.2,-0.33 h -0.39 l -0.19,-0.34 0.19,-0.33 h 0.39 l -0.2,-0.33 0.2,-0.34 h 0.38 l 0.19,0.34 0.19,-0.34 h 0.39 l -0.19,-0.33 0.19,-0.33 h -0.39 l -0.19,-0.33 0.19,-0.34 h 0.39 l -0.19,-0.33 0.19,-0.33 h 0.38 l 0.2,0.33 0.19,-0.33 h 0.38 l 0.19,0.33 -0.19,0.33 h 0.39 l 0.19,0.34 0.19,-0.34 h 0.39 l -0.2,-0.33 0.2,-0.33 h 0.38 l 0.19,0.33 0.19,-0.33 h 0.39 l 0.19,0.33 -0.19,0.33 h 0.38 l 0.2,0.34 -0.2,0.33 h -0.38 l 0.19,0.33 -0.19,0.33 h 0.38 l 0.2,0.34 0.19,-0.34 h 0.38 l 0.19,0.34 -0.19,0.33 h 0.39 l 0.19,0.33 0.19,-0.33 h 0.39 l -0.2,-0.33 0.2,-0.34 h 0.38 l 0.19,0.34 0.19,-0.34 h 0.39 l -0.19,-0.33 0.19,-0.33 h -0.39 l -0.19,-0.33 0.19,-0.34 h 0.39 l -0.19,-0.33 0.19,-0.33 h 0.38 l 0.2,0.33 0.19,-0.33 h 0.38 l 0.19,0.33 -0.19,0.33 h 0.39 l 0.19,0.34 0.19,-0.34 h 0.39 l -0.2,-0.33 0.2,-0.33 h 0.38 l 0.19,0.33 0.19,-0.33 h 0.39 l 0.19,0.33 -0.19,0.33 h 0.38 l 0.2,0.34 -0.2,0.33 h -0.38 l 0.19,0.33 -0.19,0.33 h 0.38 l 0.2,0.34 0.19,-0.34 h 0.38 l 0.19,0.34 -0.19,0.33 h 0.39 l 0.19,0.33 -0.19,0.34 h -0.39 l 0.19,0.33 -0.19,0.33 h -0.38 l -0.19,-0.33 -0.2,0.33 h -0.38 l 0.19,0.33 -0.19,0.34 h 0.38 l 0.2,0.33 -0.2,0.33 h -0.38 l 0.19,0.34 -0.19,0.33 h 0.38 l 0.2,0.33 0.19,-0.33 h 0.38 l 0.19,0.33 -0.19,0.34 h 0.39 l 0.19,0.33 0.19,-0.33 h 0.39 l -0.2,-0.34 0.2,-0.33 h 0.38 l 0.19,0.33 0.19,-0.33 h 0.39 l 0.19,0.33 -0.19,0.34 h 0.38 l 0.2,0.33 -0.2,0.33 h -0.38 l 0.19,0.33 -0.19,0.34 h 0.38 l 0.2,0.33 0.19,-0.33 h 0.38 l 0.19,0.33 -0.19,0.33 h 0.39 l 0.19,0.34 0.19,-0.34 h 0.39 l -0.2,-0.33 0.2,-0.33 h 0.38 l 0.19,0.33 0.19,-0.33 h 0.39 l -0.19,-0.34 0.19,-0.33 h -0.39 l -0.19,-0.33 0.19,-0.33 h 0.39 l -0.19,-0.34 0.19,-0.33 h 0.38 l 0.19,0.33 0.2,-0.33 h 0.38 l 0.19,0.33 -0.19,0.34 h 0.39 l 0.19,0.33 0.19,-0.33 h 0.38 l -0.19,-0.34 0.19,-0.33 h 0.39 l 0.19,0.33 0.19,-0.33 h 0.39 l -0.19,-0.33 0.19,-0.34 h -0.39 l -0.19,-0.33 0.19,-0.33 h 0.39 l -0.19,-0.34 0.19,-0.33 h -0.39 l -0.19,-0.33 -0.19,0.33 h -0.39 l -0.19,-0.33 0.19,-0.33 h -0.38 l -0.19,-0.34 0.19,-0.33 h 0.38 l -0.19,-0.33 0.19,-0.34 h 0.39 l 0.19,0.34 0.19,-0.34 h 0.39 l -0.19,-0.33 0.19,-0.33 h -0.39 l -0.19,-0.33 0.19,-0.34 h 0.39 l -0.19,-0.33 0.19,-0.33 h 0.38 l 0.19,0.33 0.2,-0.33 h 0.38 l 0.19,0.33 -0.19,0.33 h 0.39 l 0.19,0.34 0.19,-0.34 h 0.38 l -0.19,-0.33 0.19,-0.33 h 0.39 l 0.19,0.33 0.19,-0.33 h 0.39 l 0.19,0.33 -0.19,0.33 h 0.38 l 0.19,0.34 -0.19,0.33 h -0.38 l 0.19,0.33 -0.19,0.33 h 0.38 l 0.19,0.34 0.2,-0.34 h 0.38 l 0.19,0.34 -0.19,0.33 h 0.39 l 0.19,0.33 0.19,-0.33 h 0.38 l -0.19,-0.33 0.19,-0.34 h 0.39 l 0.19,0.34 0.19,-0.34 h 0.39 l -0.19,-0.33 0.19,-0.33 h -0.39 l -0.19,-0.33 0.19,-0.34 h 0.39 l -0.19,-0.33 0.19,-0.33 h 0.38 l 0.19,0.33 0.2,-0.33 h 0.38 l 0.19,0.33 -0.19,0.33 h 0.39 l 0.19,0.34 0.19,-0.34 h 0.38 l -0.19,-0.33 0.19,-0.33 h 0.39 l 0.19,0.33 0.19,-0.33 h 0.39 l -0.19,-0.34 0.19,-0.33 h -0.39 l -0.19,-0.33 0.19,-0.34 h 0.39 l -0.19,-0.33 0.19,-0.33 h -0.39 l -0.19,-0.33 -0.19,0.33 h -0.39 l -0.19,-0.33 0.19,-0.34 h -0.38 l -0.19,-0.33 0.19,-0.33 h 0.38 l -0.19,-0.34 0.19,-0.33 h 0.39 l 0.19,0.33 0.19,-0.33 h 0.39 l -0.19,-0.33 0.19,-0.33 h -0.39 l -0.19,-0.34 0.19,-0.33 h 0.39 l -0.19,-0.33 0.19,-0.34 h -0.39 l -0.19,-0.33 -0.19,0.33 h -0.39 l -0.19,-0.33 0.19,-0.33 h -0.38 l -0.19,-0.33 -0.19,0.33 h -0.39 l 0.19,0.33 -0.19,0.33 h -0.38 l -0.2,-0.33 -0.19,0.33 h -0.38 l -0.19,-0.33 0.19,-0.33 h -0.39 l -0.19,-0.33 0.19,-0.34 h 0.39 l -0.19,-0.33 0.19,-0.33 h -0.39 l -0.19,-0.34 -0.19,0.34 h -0.39 l -0.19,-0.34 0.19,-0.33 h -0.38 l -0.19,-0.33 0.19,-0.34 h 0.38 l -0.19,-0.33 0.19,-0.33 h 0.39 l 0.19,0.33 0.19,-0.33 h 0.39 l -0.19,-0.33 0.19,-0.34 h -0.39 l -0.19,-0.33 0.19,-0.33 h 0.39 l -0.19,-0.34 0.19,-0.33 h 0.38 l 0.19,0.33 0.2,-0.33 h 0.38 l 0.19,0.33 -0.19,0.34 h 0.39 l 0.19,0.33 0.19,-0.33 h 0.38 l -0.19,-0.34 0.19,-0.33 h 0.39 l 0.19,0.33 0.19,-0.33 h 0.39 l -0.19,-0.33 0.19,-0.33 h -0.39 l -0.19,-0.34 0.19,-0.33 h 0.39 l -0.19,-0.33 0.19,-0.34 h -0.39 l -0.19,-0.33 -0.19,0.33 h -0.39 l -0.19,-0.33 0.19,-0.33 h -0.38 l -0.19,-0.33 0.19,-0.34 h 0.38 l -0.19,-0.33 0.19,-0.33 h 0.39 l 0.19,0.33 0.19,-0.33 h 0.39 l -0.19,-0.34 0.19,-0.33 h -0.39 l -0.19,-0.33 0.19,-0.34 h 0.39 l -0.19,-0.33 0.19,-0.33 h -0.39 l -0.19,-0.33 -0.19,0.33 h -0.39 l -0.19,-0.33 0.19,-0.34 h -0.38 l -0.19,-0.33 -0.19,0.33 h -0.39 l 0.19,0.34 -0.19,0.33 h -0.38 l -0.2,-0.33 -0.19,0.33 h -0.38 l -0.19,-0.33 0.19,-0.34 h -0.39 l -0.19,-0.33 0.19,-0.33 h 0.39 l -0.19,-0.34 0.19,-0.33 h -0.39 l -0.19,-0.33 -0.19,0.33 h -0.39 l -0.19,-0.33 0.19,-0.33 h -0.38 l -0.19,-0.34 -0.19,0.34 h -0.39 l 0.19,0.33 -0.19,0.33 h -0.38 l -0.2,-0.33 -0.19,0.33 h -0.38 l 0.19,0.33 -0.19,0.34 h 0.38 l 0.19,0.33 -0.19,0.33 h -0.38 l 0.19,0.34 -0.19,0.33 h -0.39 l -0.19,-0.33 -0.19,0.33 h -0.39 l -0.19,-0.33 0.19,-0.34 h -0.38 l -0.19,-0.33 -0.19,0.33 h -0.39 l 0.19,0.34 -0.19,0.33 h -0.38 l -0.2,-0.33 -0.19,0.33 h -0.38 l -0.19,-0.33 0.19,-0.34 h -0.39 l -0.19,-0.33 0.19,-0.33 h 0.39 l -0.19,-0.34 0.19,-0.33 h -0.39 l -0.19,-0.33 -0.19,0.33 h -0.39 l -0.19,-0.33 0.19,-0.33 h -0.38 l -0.19,-0.34 0.19,-0.33 h 0.38 l -0.19,-0.33 0.19,-0.34 h 0.39 l 0.19,0.34 0.19,-0.34 h 0.39 l -0.19,-0.33 0.19,-0.33 h -0.39 l -0.19,-0.33 0.19,-0.34 h 0.39 l -0.19,-0.33 0.19,-0.33 h -0.39 l -0.19,-0.34 -0.19,0.34 h -0.39 l -0.19,-0.34 0.19,-0.33 h -0.38 L 574.6,65 l -0.19,0.33 h -0.39 l 0.19,0.33 -0.19,0.34 h -0.38 l -0.2,-0.34 -0.19,0.34 h -0.38 l -0.19,-0.34 0.19,-0.33 h -0.39 l -0.19,-0.33 0.19,-0.34 h 0.39 l -0.19,-0.33 0.19,-0.33 h -0.39 L 572.29,63.67 572.1,64 h -0.38 l -0.2,-0.33 0.2,-0.34 h -0.39 l -0.19,-0.33 0.19,-0.33 h 0.39 l -0.2,-0.34 0.2,-0.33 h 0.38 l 0.19,0.33 0.19,-0.33 h 0.39 l -0.19,-0.33 0.19,-0.33 h -0.39 l -0.19,-0.34 0.19,-0.33 h 0.39 l -0.19,-0.33 0.19,-0.34 h 0.38 l 0.19,0.34 0.2,-0.34 h 0.38 l 0.19,0.34 -0.19,0.33 h 0.39 l 0.19,0.33 0.19,-0.33 h 0.38 l -0.19,-0.33 0.19,-0.34 h 0.39 l 0.19,0.34 0.19,-0.34 h 0.39 l -0.19,-0.33 0.19,-0.33 h -0.39 l -0.19,-0.34 0.19,-0.33 h 0.39 l -0.19,-0.33 0.19,-0.33 h -0.39 l -0.19,-0.34 -0.19,0.34 h -0.39 l -0.19,-0.34 0.19,-0.33 h -0.38 l -0.19,-0.33 0.19,-0.34 h 0.38 l -0.19,-0.33 0.19,-0.33 h 0.39 l 0.19,0.33 0.19,-0.33 h 0.39 l -0.19,-0.33 0.19,-0.34 h -0.39 l -0.19,-0.33 0.19,-0.33 h 0.39 l -0.19,-0.34 0.19,-0.33 h 0.38 l 0.19,0.33 0.2,-0.33 h 0.38 l 0.19,0.33 -0.19,0.34 h 0.39 l 0.19,0.33 0.19,-0.33 h 0.38 l -0.19,-0.34 0.19,-0.33 h 0.39 l 0.19,0.33 0.19,-0.33 h 0.39 l 0.19,0.33 -0.19,0.34 h 0.38 l 0.19,0.33 -0.19,0.33 h -0.38 l 0.19,0.34 -0.19,0.33 h 0.38 l 0.19,0.33 0.2,-0.33 h 0.38 l 0.19,0.33 -0.19,0.33 h 0.39 l 0.19,0.34 0.19,-0.34 h 0.38 l -0.19,-0.33 0.19,-0.33 h 0.39 l 0.19,0.33 0.19,-0.33 h 0.39 l -0.19,-0.33 0.19,-0.34 h -0.39 l -0.19,-0.33 0.19,-0.33 h 0.39 l -0.19,-0.34 0.19,-0.33 h 0.38 l 0.19,0.33 0.2,-0.33 h 0.38 l 0.19,0.33 -0.19,0.34 h 0.39 l 0.19,0.33 0.19,-0.33 h 0.38 l -0.19,-0.34 0.19,-0.33 h 0.39 l 0.19,0.33 0.19,-0.33 h 0.39 l -0.19,-0.33 0.19,-0.33 h -0.39 l -0.19,-0.34 0.19,-0.33 h 0.39 l -0.19,-0.33 0.19,-0.34 h -0.39 l -0.19,-0.33 -0.19,0.33 h -0.39 l -0.19,-0.33 0.19,-0.33 h -0.38 l -0.19,-0.34 0.19,-0.33 h 0.38 l -0.19,-0.33 0.19,-0.33 h 0.39 l 0.19,0.33 0.19,-0.33 h 0.39 l -0.19,-0.34 0.19,-0.33 h -0.39 l -0.19,-0.33 0.19,-0.34 h 0.39 l -0.19,-0.33 0.19,-0.33 h -0.39 l -0.19,-0.33 -0.19,0.33 h -0.39 l -0.19,-0.33 0.19,-0.34 h -0.38 l -0.19,-0.33 -0.19,0.33 h -0.39 l 0.19,0.34 -0.19,0.33 h -0.38 l -0.2,-0.33 -0.19,0.33 h -0.38 l -0.19,-0.33 0.19,-0.34 h -0.39 l -0.19,-0.33 0.19,-0.33 h 0.39 l -0.19,-0.34 0.19,-0.33 h -0.39 l -0.19,-0.33 -0.19,0.33 h -0.39 l -0.19,-0.33 0.19,-0.33 h -0.38 l -0.19,-0.34 0.19,-0.33 h 0.38 l -0.19,-0.33 0.19,-0.34 h 0.39 l 0.19,0.34 0.19,-0.34 h 0.39 l -0.19,-0.33 0.19,-0.33 h -0.39 l -0.19,-0.34 0.19,-0.33 h 0.39 l -0.19,-0.33 0.19,-0.33 h 0.38 l 0.19,0.33 0.2,-0.33 h 0.38 l 0.19,0.33 -0.19,0.33 h 0.39 l 0.19,0.33 0.19,-0.33 h 0.38 l -0.19,-0.33 0.19,-0.33 h 0.39 l 0.19,0.33 0.19,-0.33 h 0.39 l -0.19,-0.34 0.19,-0.33 h -0.39 l -0.19,-0.33 0.19,-0.34 h 0.39 l -0.19,-0.33 0.19,-0.33 h -0.39 l -0.19,-0.33 -0.19,0.33 h -0.39 l -0.19,-0.33 0.19,-0.34 h -0.38 l -0.19,-0.33 0.19,-0.33 h 0.38 l -0.19,-0.34 0.19,-0.33 h 0.39 l 0.19,0.33 0.19,-0.33 h 0.39 l -0.19,-0.33 0.19,-0.33 h -0.39 l -0.19,-0.34 0.19,-0.33 h 0.39 l -0.19,-0.33 0.19,-0.34 h -0.39 l -0.19,-0.33 -0.19,0.33 h -0.39 l -0.19,-0.33 0.19,-0.33 h -0.38 l -0.19,-0.34 -0.19,0.34 h -0.39 l 0.19,0.33 -0.19,0.33 h -0.38 l -0.2,-0.33 -0.19,0.33 h -0.38 l -0.19,-0.33 0.19,-0.33 h -0.39 l -0.19,-0.34 0.19,-0.33 h 0.39 l -0.19,-0.33 0.19,-0.33 h -0.39 l -0.19,-0.34 -0.19,0.34 h -0.39 l -0.19,-0.34 0.19,-0.33 h -0.38 l -0.19,-0.33 -0.19,0.33 h -0.39 l 0.19,0.33 -0.19,0.34 h -0.38 l -0.2,-0.34 -0.19,0.34 h -0.38 l 0.19,0.33 -0.19,0.33 h 0.38 l 0.19,0.33 -0.19,0.34 h -0.38 l 0.19,0.33 -0.19,0.33 h -0.39 l -0.19,-0.33 -0.19,0.33 h -0.39 l -0.19,-0.33 0.19,-0.33 h -0.38 l -0.19,-0.34 -0.19,0.34 h -0.39 l 0.19,0.33 -0.19,0.33 h -0.38 l -0.2,-0.33 -0.19,0.33 h -0.38 l -0.19,-0.33 0.19,-0.33 h -0.39 l -0.19,-0.34 0.19,-0.33 h 0.39 l -0.19,-0.33 0.19,-0.33 h -0.39 l -0.19,-0.34 -0.19,0.34 h -0.39 l -0.19,-0.34 0.19,-0.33 h -0.38 l -0.19,-0.33 0.19,-0.34 h 0.38 l -0.19,-0.33 0.19,-0.33 h 0.39 l 0.19,0.33 0.19,-0.33 h 0.39 l -0.19,-0.33 0.19,-0.34 h -0.39 l -0.19,-0.33 0.19,-0.33 h 0.39 l -0.19,-0.34 0.19,-0.33 h -0.39 l -0.19,-0.33 -0.19,0.33 h -0.39 l -0.19,-0.33 0.19,-0.34 h -0.38 l -0.19,-0.33 -0.19,0.33 h -0.39 l 0.19,0.34 -0.19,0.33 h -0.38 l -0.2,-0.33 -0.19,0.33 h -0.38 l -0.19,-0.33 0.19,-0.34 h -0.39 l -0.19,-0.33 0.19,-0.33 h 0.39 l -0.19,-0.33 0.19,-0.34 h -0.39 l -0.19,-0.33 -0.19,0.33 h -0.38 l -0.2,-0.33 0.2,-0.33 h -0.39 l -0.19,-0.34 -0.19,0.34 h -0.39 l 0.19,0.33 -0.19,0.33 h -0.38 l -0.19,-0.33 -0.2,0.33 h -0.38 l 0.19,0.34 -0.19,0.33 h 0.38 l 0.2,0.33 -0.2,0.33 h -0.38 l 0.19,0.34 -0.19,0.33 h -0.39 l -0.19,-0.33 -0.19,0.33 h -0.38 l -0.2,-0.33 0.2,-0.34 h -0.39 l -0.19,-0.33 -0.19,0.33 h -0.39 l 0.19,0.34 -0.19,0.33 h -0.38 l -0.19,-0.33 -0.2,0.33 h -0.38 l 0.19,0.33 -0.19,0.34 h 0.38 l 0.2,0.33 -0.2,0.33 h -0.38 l 0.19,0.34 -0.19,0.33 h 0.38 l 0.2,0.33 0.19,-0.33 h 0.38 l 0.19,0.33 -0.19,0.33 h 0.39 l 0.19,0.34 -0.19,0.33 h -0.39 l 0.19,0.33 -0.19,0.34 h -0.38 l -0.19,-0.34 -0.2,0.34 h -0.38 l 0.19,0.33 -0.19,0.33 h 0.38 l 0.2,0.33 -0.2,0.34 h -0.38 l 0.19,0.33 -0.19,0.33 h -0.39 l -0.19,-0.33 -0.19,0.33 h -0.38 l -0.2,-0.33 0.2,-0.33 h -0.39 l -0.19,-0.34 -0.19,0.34 h -0.39 l 0.19,0.33 -0.19,0.33 h -0.38 l -0.19,-0.33 -0.2,0.33 h -0.38 l -0.19,-0.33 0.19,-0.33 h -0.39 l -0.19,-0.34 0.19,-0.33 h 0.39 l -0.19,-0.33 0.19,-0.33 h -0.39 l -0.19,-0.34 -0.19,0.34 h -0.38 l -0.2,-0.34 0.2,-0.33 h -0.39 l -0.19,-0.33 -0.19,0.33 h -0.39 l 0.19,0.33 -0.19,0.34 h -0.38 l -0.19,-0.34 -0.2,0.34 h -0.38 l 0.19,0.33 -0.19,0.33 h 0.38 l 0.2,0.33 -0.2,0.34 h -0.38 l 0.19,0.33 -0.19,0.33 h -0.39 l -0.19,-0.33 -0.19,0.33 h -0.38 l -0.2,-0.33 0.2,-0.33 h -0.39 l -0.19,-0.34 -0.19,0.34 h -0.39 l 0.19,0.33 -0.19,0.33 h -0.38 l -0.19,-0.33 -0.2,0.33 h -0.38 l -0.19,-0.33 0.19,-0.33 h -0.39 l -0.19,-0.34 0.19,-0.33 h 0.39 l -0.19,-0.33 0.19,-0.33 h -0.39 l -0.19,-0.34 -0.19,0.34 h -0.38 l -0.2,-0.34 0.2,-0.33 h -0.39 l -0.19,-0.33 0.19,-0.34 h 0.39 l -0.2,-0.33 0.2,-0.33 h 0.38 l 0.19,0.33 0.19,-0.33 h 0.39 l -0.19,-0.33 0.19,-0.34 h -0.39 l -0.19,-0.33 0.19,-0.33 h 0.39 l -0.19,-0.34 0.19,-0.33 h -0.39 l -0.19,-0.33 -0.19,0.33 h -0.38 l -0.2,-0.33 0.2,-0.34 h -0.39 l -0.19,-0.33 -0.19,0.33 h -0.39 l 0.19,0.34 -0.19,0.33 h -0.38 l -0.19,-0.33 -0.2,0.33 h -0.38 l -0.19,-0.33 0.19,-0.34 h -0.39 l -0.19,-0.33 0.19,-0.33 h 0.39 l -0.19,-0.33 0.19,-0.34 h -0.39 l -0.19,-0.33 -0.19,0.33 h -0.38 l -0.2,-0.33 0.2,-0.33 h -0.39 l -0.19,-0.34 0.19,-0.33 h 0.39 l -0.2,-0.33 0.2,-0.33 h 0.38 l 0.19,0.33 0.19,-0.33 h 0.39 l -0.19,-0.34 0.19,-0.33 h -0.39 l -0.19,-0.33 0.19,-0.34 h 0.39 l -0.19,-0.33 0.19,-0.33 h 0.38 l 0.2,0.33 0.19,-0.33 h 0.38 l 0.19,0.33 -0.19,0.33 h 0.39 l 0.19,0.34 0.19,-0.34 h 0.39 l -0.2,-0.33 0.2,-0.33 h 0.38 l 0.19,0.33 0.19,-0.33 h 0.39 l -0.19,-0.33 0.19,-0.34 h -0.39 l -0.19,-0.33 0.19,-0.33 h 0.39 l -0.19,-0.34 0.19,-0.33 h -0.39 l -0.19,-0.33 -0.19,0.33 h -0.38 l -0.2,-0.33 0.2,-0.34 h -0.39 l -0.19,-0.33 0.19,-0.33 h 0.39 l -0.2,-0.33 0.2,-0.34 h 0.38 l 0.19,0.34 0.19,-0.34 h 0.39 l -0.19,-0.33 0.19,-0.33 h -0.39 l -0.19,-0.34 0.19,-0.33 h 0.39 l -0.19,-0.33 0.19,-0.33 h -0.39 l -0.19,-0.34 -0.19,0.34 h -0.38 l -0.2,-0.34 0.2,-0.33 h -0.39 l -0.19,-0.33 -0.19,0.33 h -0.39 l 0.19,0.33 -0.19,0.34 h -0.38 l -0.19,-0.34 -0.2,0.34 h -0.38 l -0.19,-0.34 0.19,-0.33 h -0.39 l -0.19,-0.33 0.19,-0.34 h 0.39 l -0.19,-0.33 0.19,-0.33 h -0.39 l -0.19,-0.33 -0.19,0.33 h -0.38 l -0.2,-0.33 0.2,-0.34 h -0.39 l -0.19,-0.33 -0.19,0.33 h -0.39 l 0.2,0.34 -0.2,0.33 h -0.38 l -0.19,-0.33 -0.2,0.33 h -0.38 l 0.19,0.33 -0.19,0.33 h 0.38 l 0.2,0.34 -0.2,0.33 h -0.38 l 0.19,0.33 -0.19,0.34 h -0.38 l -0.2,-0.34 -0.19,0.34 h -0.38 l -0.2,-0.34 0.2,-0.33 h -0.39 l -0.19,-0.33 -0.19,0.33 h -0.39 l 0.2,0.33 -0.2,0.34 h -0.38 l -0.19,-0.34 -0.2,0.34 h -0.38 l -0.19,-0.34 0.19,-0.33 h -0.38 l -0.2,-0.33 0.2,-0.34 h 0.38 l -0.19,-0.33 0.19,-0.33 h -0.38 l -0.2,-0.33 -0.19,0.33 h -0.38 l -0.2,-0.33 0.2,-0.34 h -0.39 l -0.19,-0.33 0.19,-0.33 h 0.39 l -0.2,-0.34 0.2,-0.33 h 0.38 l 0.19,0.33 0.2,-0.33 h 0.38 l -0.19,-0.33 0.19,-0.34 h -0.38 l -0.2,-0.33 0.2,-0.33 h 0.38 L 545,12.4 l 0.19,-0.34 h -0.38 l -0.2,-0.33 -0.19,0.33 h -0.38 l -0.2,-0.33 0.2,-0.33 h -0.39 l -0.19,-0.34 -0.19,0.34 h -0.39 l 0.2,0.33 -0.2,0.33 h -0.38 l -0.19,-0.33 -0.2,0.33 h -0.38 l -0.19,-0.33 0.19,-0.33 h -0.38 l -0.2,-0.34 0.2,-0.33 h 0.38 l -0.19,-0.33 0.19,-0.33 h -0.38 l -0.2,-0.34 -0.19,0.34 h -0.38 l -0.2,-0.34 0.2,-0.33 h -0.39 L 540,9.07 539.81,9.4 h -0.39 l 0.2,0.33 -0.2,0.34 h -0.38 l -0.19,-0.34 -0.2,0.34 h -0.38 l 0.19,0.33 -0.19,0.33 h 0.38 l 0.2,0.33 -0.2,0.34 h -0.38 l 0.19,0.33 -0.19,0.33 h -0.38 l -0.2,-0.33 -0.19,0.33 h -0.38 l -0.2,-0.33 0.2,-0.33 h -0.39 l -0.19,-0.34 -0.19,0.34 h -0.39 l 0.2,0.33 -0.2,0.33 h -0.38 l -0.19,-0.33 -0.2,0.33 h -0.38 l 0.19,0.34 -0.19,0.33 h 0.38 l 0.2,0.33 -0.2,0.33 h -0.38 l 0.19,0.34 -0.19,0.33 h 0.38 l 0.2,0.33 0.19,-0.33 h 0.38 l 0.2,0.33 -0.2,0.34 h 0.39 l 0.19,0.33 -0.19,0.33 h -0.39 l 0.2,0.34 -0.2,0.33 h -0.38 l -0.19,-0.33 -0.2,0.33 h -0.38 l 0.19,0.33 -0.19,0.33 h 0.38 l 0.2,0.34 -0.2,0.33 h -0.38 l 0.19,0.33 -0.19,0.34 h -0.38 l -0.2,-0.34 -0.19,0.34 h -0.38 l -0.2,-0.34 0.2,-0.33 h -0.39 l -0.19,-0.33 -0.19,0.33 h -0.39 l 0.2,0.33 -0.2,0.34 h -0.38 l -0.19,-0.34 -0.2,0.34 h -0.38 l -0.19,-0.34 0.19,-0.33 h -0.38 l -0.2,-0.33 0.2,-0.34 h 0.38 l -0.19,-0.33 0.19,-0.33 h -0.38 l -0.2,-0.33 -0.19,0.33 h -0.38 l -0.2,-0.33 0.2,-0.34 h -0.39 l -0.19,-0.33 -0.19,0.33 h -0.39 l 0.2,0.34 -0.2,0.33 h -0.38 l -0.19,-0.33 -0.19,0.33 h -0.39 l 0.19,0.33 -0.19,0.33 h 0.39 l 0.19,0.34 -0.19,0.33 h -0.39 l 0.19,0.33 -0.19,0.34 h -0.38 l -0.2,-0.34 -0.19,0.34 h -0.38 l -0.19,-0.34 0.19,-0.33 h -0.39 l -0.19,-0.33 -0.19,0.33 h -0.39 l 0.2,0.33 -0.2,0.34 h -0.38 l -0.19,-0.34 -0.19,0.34 h -0.39 l 0.19,0.33 -0.19,0.33 h 0.39 l 0.19,0.33 -0.19,0.34 h -0.39 l 0.19,0.33 -0.19,0.33 h 0.39 l 0.19,0.34 0.19,-0.34 h 0.38 l 0.2,0.34 -0.2,0.33 h 0.39 l 0.19,0.33 -0.19,0.33 h -0.39 l 0.2,0.34 -0.2,0.33 h -0.38 l -0.19,-0.33 -0.19,0.33 h -0.39 l 0.19,0.33 -0.19,0.34 h 0.39 l 0.19,0.33 -0.19,0.33 h -0.39 l 0.19,0.34 -0.19,0.33 h 0.39 l 0.19,0.33 0.19,-0.33 h 0.38 l 0.2,0.33 -0.2,0.33 h 0.39 l 0.19,0.34 0.19,-0.34 h 0.39 l -0.19,-0.33 0.19,-0.33 h 0.38 l 0.19,0.33 0.2,-0.33 h 0.38 l 0.19,0.33 -0.19,0.33 h 0.39 l 0.19,0.34 -0.19,0.33 h -0.39 l 0.19,0.33 -0.19,0.34 h 0.39 l 0.19,0.33 0.19,-0.33 h 0.38 l 0.2,0.33 -0.2,0.33 h 0.39 l 0.19,0.33 -0.19,0.34 h -0.39 l 0.2,0.33 -0.2,0.33 h -0.38 l -0.19,-0.33 -0.19,0.33 h -0.39 l 0.19,0.34 -0.19,0.33 h 0.39 l 0.19,0.33 -0.19,0.33 h -0.39 l 0.19,0.34 -0.19,0.33 h -0.38 l -0.2,-0.33 -0.19,0.33 h -0.38 l -0.19,-0.33 0.19,-0.34 h -0.39 l -0.19,-0.33 -0.19,0.33 h -0.39 l 0.2,0.34 -0.2,0.33 h -0.38 l -0.19,-0.33 -0.19,0.33 h -0.39 l 0.19,0.33 -0.19,0.34 h 0.39 l 0.19,0.33 -0.19,0.33 h -0.39 l 0.19,0.34 -0.19,0.33 h 0.39 l 0.19,0.33 0.19,-0.33 h 0.38 l 0.2,0.33 -0.2,0.33 h 0.39 l 0.19,0.34 -0.19,0.33 h -0.39 l 0.2,0.33 -0.2,0.34 h -0.38 l -0.19,-0.34 -0.19,0.34 h -0.39 l 0.19,0.33 -0.19,0.33 h 0.39 l 0.19,0.33 -0.19,0.34 h -0.39 l 0.19,0.33 -0.19,0.33 h -0.38 l -0.2,-0.33 -0.19,0.33 h -0.38 l -0.19,-0.33 0.19,-0.33 h -0.39 l -0.19,-0.34 -0.19,0.34 h -0.39 l 0.2,0.33 -0.2,0.33 h -0.38 l -0.19,-0.33 -0.19,0.33 h -0.39 l -0.19,-0.33 0.19,-0.33 h -0.38 l -0.2,-0.34 0.2,-0.33 h 0.38 l -0.19,-0.33 0.19,-0.33 h -0.38 l -0.2,-0.34 -0.19,0.34 h -0.38 l -0.19,-0.34 0.19,-0.33 h -0.39 l -0.19,-0.33 -0.19,0.33 h -0.39 l 0.2,0.33 -0.2,0.34 h -0.38 l -0.19,-0.34 -0.19,0.34 h -0.39 l 0.19,0.33 -0.19,0.33 h 0.39 l 0.19,0.33 -0.19,0.34 h -0.39 l 0.19,0.33 -0.19,0.33 h -0.38 l -0.2,-0.33 -0.19,0.33 h -0.38 l -0.19,-0.33 0.19,-0.33 h -0.39 l -0.19,-0.34 -0.19,0.34 h -0.39 l 0.2,0.33 -0.2,0.33 h -0.38 l -0.19,-0.33 -0.19,0.33 h -0.39 l -0.19,-0.33 0.19,-0.33 h -0.38 l -0.2,-0.34 0.2,-0.33 h 0.38 l -0.19,-0.33 0.19,-0.33 h -0.38 l -0.2,-0.34 -0.19,0.34 h -0.38 l -0.19,-0.34 0.19,-0.33 h -0.39 l -0.19,-0.33 0.19,-0.34 h 0.39 l -0.19,-0.33 0.19,-0.33 h 0.38 l 0.19,0.33 0.2,-0.33 h 0.38 l -0.19,-0.33 0.19,-0.34 h -0.38 l -0.2,-0.33 0.2,-0.33 h 0.38 l -0.19,-0.34 0.19,-0.33 h -0.38 l -0.2,-0.33 -0.19,0.33 h -0.38 l -0.19,-0.33 0.19,-0.34 h -0.39 l -0.19,-0.33 -0.19,0.33 h -0.39 l 0.2,0.34 -0.2,0.33 h -0.38 l -0.19,-0.33 -0.19,0.33 h -0.39 l -0.19,-0.33 0.19,-0.34 h -0.38 l -0.2,-0.33 0.2,-0.33 h 0.38 l -0.19,-0.33 0.19,-0.34 h -0.38 l -0.2,-0.33 -0.19,0.33 h -0.38 l -0.19,-0.33 0.19,-0.33 h -0.39 l -0.19,-0.34 -0.19,0.34 h -0.39 l 0.2,0.33 -0.2,0.33 h -0.38 l -0.19,-0.33 -0.19,0.33 h -0.39 l 0.19,0.34 -0.19,0.33 h 0.39 l 0.19,0.33 -0.19,0.33 h -0.39 l 0.19,0.34 -0.19,0.33 h -0.38 l -0.19,-0.33 -0.2,0.33 h -0.38 l -0.19,-0.33 0.19,-0.34 h -0.39 l -0.19,-0.33 -0.19,0.33 h -0.38 l 0.19,0.34 -0.19,0.33 h -0.39 l -0.19,-0.33 -0.19,0.33 h -0.39 l 0.19,0.33 -0.19,0.34 h 0.39 l 0.19,0.33 -0.19,0.33 h -0.39 l 0.19,0.34 -0.19,0.33 h 0.39 l 0.19,0.33 0.19,-0.33 h 0.39 l 0.19,0.33 -0.19,0.33 h 0.38 l 0.19,0.34 -0.19,0.33 h -0.38 l 0.19,0.33 -0.19,0.34 h -0.39 l -0.19,-0.34 -0.19,0.34 h -0.39 l 0.19,0.33 -0.19,0.33 h 0.39 l 0.19,0.33 -0.19,0.34 h -0.39 l 0.19,0.33 -0.19,0.33 h -0.38 l -0.19,-0.33 -0.2,0.33 h -0.38 l -0.19,-0.33 0.19,-0.33 h -0.39 l -0.19,-0.34 -0.19,0.34 h -0.38 l 0.19,0.33 -0.19,0.33 h -0.39 l -0.19,-0.33 -0.19,0.33 h -0.39 l -0.19,-0.33 0.19,-0.33 h -0.38 l -0.19,-0.34 0.19,-0.33 h 0.38 l -0.19,-0.33 0.19,-0.33 h -0.38 l -0.19,-0.34 -0.2,0.34 h -0.38 l -0.19,-0.34 0.19,-0.33 h -0.39 l -0.19,-0.33 -0.19,0.33 h -0.38 l 0.19,0.33 -0.19,0.34 h -0.39 l -0.19,-0.34 -0.19,0.34 h -0.39 l 0.19,0.33 -0.19,0.33 h 0.39 l 0.19,0.33 -0.19,0.34 h -0.39 l 0.19,0.33 -0.19,0.33 h -0.38 l -0.19,-0.33 -0.2,0.33 h -0.38 l -0.19,-0.33 0.19,-0.33 h -0.39 l -0.19,-0.34 -0.19,0.34 h -0.38 l 0.19,0.33 -0.19,0.33 h -0.39 l -0.19,-0.33 -0.19,0.33 h -0.39"
           style="fill:none;stroke:#000000;stroke-width:0.75;stroke-linecap:round;stroke-linejoin:round;stroke-miterlimit:10;stroke-dasharray:none;stroke-opacity:1"
           id="path132" />
        <text
           xml:space="preserve"
           transform="matrix(1,0,0,-1,465.26,96.5)"
           style="font-variant:normal;font-weight:normal;font-size:16px;font-family:Helvetica;-inkscape-font-specification:Helvetica;writing-mode:lr-tb;fill:#000000;fill-opacity:1;fill-rule:nonzero;stroke:none"
           id="text136"><tspan
             x="0 11.552 16 25.344 29.792"
             y="0"
             sodipodi:role="line"
             id="tspan134">N = 5</tspan></text>
      </g>
    </g>
  </g>
</svg>
